Coordinates
version=1
nRows=4
nColumns=107
inDegrees=yes

Units are S.I. units (second, meters, Newtons, ...)
If the header above contains a line with 'inDegrees', this indicates whether rotational values are in degrees (yes) or radians (no).

endheader
time	sternoclavicular_r2	sternoclavicular_r3	unrotscap_r3	unrotscap_r2	acromioclavicular_r2	acromioclavicular_r3	acromioclavicular_r1	unrothum_r1	unrothum_r3	unrothum_r2	elv_angle	shoulder_elv	shoulder1_r2	shoulder_rot	elbow_flexion	pro_sup	deviation	flexion	proximal_distal_r1	proximal_distal_r3	cmc_flexion	cmc_abduction	mp_flexion	ip_flexion	mcp2_flexion	mcp2_abduction	pm2_flexion	md2_flexion	mcp3_flexion	mcp3_abduction	pm3_flexion	md3_flexion	mcp4_flexion	mcp4_abduction	pm4_flexion	md4_flexion	mcp5_flexion	mcp5_abduction	pm5_flexion	md5_flexion	bicpt_tx	bicpt_ty	bicpt_tz	bicpt2_tx	bicpt2_ty	bicpt2_tz	ptpt_tx	ptpt_ty	ptpt_tz	FCUpt_tx	FCUpt_ty	FCUpt_tz	EDCpt_tx	EDCpt_ty	EDCpt_tz	APLpt_tx	APLpt_ty	APLpt_tz	FPLpt_tx	FPLpt_ty	FPLpt_tz	FPLpt2_tx	FPLpt2_ty	FPLpt2_tz	PEC1pt2_tx	PEC1pt2_ty	PEC1pt2_tz	PEC1pt3_tx	PEC1pt3_ty	PEC1pt3_tz	PEC2pt2_tx	PEC2pt2_ty	PEC2pt2_tz	PEC2pt3_tx	PEC2pt3_ty	PEC2pt3_tz	PEC3pt2_tx	PEC3pt2_ty	PEC3pt2_tz	PEC3pt3_tx	PEC3pt3_ty	PEC3pt3_tz	DELT2pt2a_tx	DELT2pt2a_ty	DELT2pt2a_tz	DELT2pt2_tx	DELT2pt2_ty	DELT2pt2_tz	LAT1pt2_tx	LAT1pt2_ty	LAT1pt2_tz	LAT1pt3_tx	LAT1pt3_ty	LAT1pt3_tz	LAT2pt2_tx	LAT2pt2_ty	LAT2pt2_tz	LAT2pt3_tx	LAT2pt3_ty	LAT2pt3_tz	LAT3pt2_tx	LAT3pt2_ty	LAT3pt2_tz	LAT3pt3_tx	LAT3pt3_ty	LAT3pt3_tz
      0.00000000	     -0.32498272	      0.13764734	     -0.13764734	      0.32498272	     -0.06580239	      0.53179178	      0.23903674	     -0.23903674	     -0.53179178	      0.06580239	     98.61332562	     76.94254834	     -1.72112722	    -20.72721848	     28.30493555	     37.37259078	      0.18189541	     -1.03529287	      0.21977660	     -0.51764644	      3.38678833	     -5.14965292	    -34.89500157	    -39.25346138	     83.66198397	     12.56883967	     82.79731918	     84.56445315	     79.15875018	      7.56544848	     80.29198537	     43.47816591	     71.66807385	    -11.85184850	     85.86670599	     85.11026252	     88.74562168	    -13.56574440	     79.84375617	      5.65413559	      0.00083624	     -0.03084418	     -0.00482255	      0.01656169	     -0.01788917	     -0.00774572	      0.00478859	     -0.06668558	     -0.00306056	      0.00751677	     -0.18354875	     -0.00036520	     -0.00448470	      0.00127442	      0.00016343	      0.00016164	      0.00006466	      0.00032329	      0.00020690	      0.00062071	      0.00034915	      0.00004242	     -0.00007830	     -0.00009396	      0.00252201	      0.00884840	      0.00615541	     -0.00824996	      0.01991959	     -0.01889369	      0.00252201	      0.00884840	      0.00615541	      0.00055570	      0.01846623	     -0.00970332	      0.00397719	      0.00492048	      0.01603870	      0.00000000	      0.00791854	      0.00000000	     -0.00722406	     -0.03338455	     -0.00652996	      0.01419263	     -0.00045437	     -0.00355448	     -0.00089766	      0.01504656	     -0.00615541	      0.00247926	      0.02171492	     -0.01795328	     -0.00602717	      0.01303750	     -0.00551422	     -0.01256729	      0.02752836	     -0.03081979	     -0.02359573	      0.01457635	     -0.00739504	     -0.01564500	      0.03180295	     -0.03851405
      0.03333333	     -0.32504992	      0.13767580	     -0.13767580	      0.32504992	     -0.06581600	      0.53190173	      0.23908617	     -0.23908617	     -0.53190173	      0.06581600	     98.61016438	     76.95845740	     -1.72107204	    -20.73051809	     28.30564701	     37.37217211	      0.18189295	     -1.03528533	      0.21977400	     -0.51764267	      3.38268455	     -5.14944081	    -34.89590666	    -39.25347144	     83.66302882	     12.56981809	     82.79820736	     84.56461216	     79.16598699	      7.56492610	     80.29493320	     43.47903366	     71.66731199	    -11.85150215	     85.86611156	     85.11025193	     88.74753506	    -13.56550572	     79.84621738	      5.65447165	      0.00083626	     -0.03084426	     -0.00482257	      0.01656160	     -0.01788937	     -0.00774571	      0.00478862	     -0.06668556	     -0.00306053	      0.00751674	     -0.18354875	     -0.00036516	     -0.00448465	      0.00127441	      0.00016341	      0.00016165	      0.00006466	      0.00032330	      0.00020691	      0.00062073	      0.00034916	      0.00004242	     -0.00007821	     -0.00009385	      0.00252253	      0.00885023	      0.00615668	     -0.00825166	      0.01992371	     -0.01889759	      0.00252253	      0.00885023	      0.00615668	      0.00055581	      0.01847005	     -0.00970532	      0.00397779	      0.00492150	      0.01604014	      0.00000000	      0.00792184	      0.00000000	     -0.00722555	     -0.03339145	     -0.00653270	      0.01419423	     -0.00045448	     -0.00355597	     -0.00089785	      0.01504967	     -0.00615668	      0.00247977	      0.02171941	     -0.01795699	     -0.00602842	      0.01304019	     -0.00551536	     -0.01256989	      0.02753405	     -0.03082616	     -0.02360061	      0.01457936	     -0.00739657	     -0.01564823	      0.03180952	     -0.03852202
      0.06666667	     -0.32534525	      0.13780089	     -0.13780089	      0.32534525	     -0.06587579	      0.53238500	      0.23930339	     -0.23930339	     -0.53238500	      0.06587579	     98.69858398	     77.02837949	     -1.72261526	    -20.54048950	     28.09959322	     37.23841652	      0.18291038	     -1.03363121	      0.22085099	     -0.51681560	      1.50154531	     -5.04412204	    -33.96948977	    -38.40276784	     83.90219040	     12.78232798	     84.42897054	     82.95377131	     80.64831800	      6.33883628	     82.62365130	     47.95755861	     71.51052755	    -11.77524782	     85.97799692	     85.15708589	     88.64782665	    -13.62556415	     83.63150609	      5.67792556	      0.00082945	     -0.03082064	     -0.00481876	      0.01656053	     -0.01783339	     -0.00775949	      0.00479850	     -0.06667916	     -0.00304975	      0.00750338	     -0.18355143	     -0.00036394	     -0.00446860	      0.00126908	      0.00016418	      0.00016282	      0.00006513	      0.00032565	      0.00020841	      0.00062524	      0.00035170	      0.00003137	     -0.00003629	     -0.00004354	      0.00252482	      0.00885827	      0.00616228	     -0.00825916	      0.01994181	     -0.01891476	      0.00252482	      0.00885827	      0.00616228	      0.00055632	      0.01848683	     -0.00971414	      0.00398041	      0.00492597	      0.01604647	      0.00000000	      0.00793634	      0.00000000	     -0.00723212	     -0.03342179	     -0.00654474	      0.01408619	     -0.00044859	     -0.00348811	     -0.00089867	      0.01506334	     -0.00616228	      0.00248203	      0.02173914	     -0.01797330	     -0.00603389	      0.01305204	     -0.00552037	     -0.01258131	      0.02755907	     -0.03085417	     -0.02362206	      0.01459261	     -0.00740329	     -0.01566245	      0.03183842	     -0.03855702
      0.10000000	     -0.32461274	      0.13749063	     -0.13749063	      0.32461274	     -0.06572748	      0.53118634	      0.23876460	     -0.23876460	     -0.53118634	      0.06572748	     98.89625906	     76.85495050	     -1.72606534	    -21.52076142	     28.09180459	     37.97040700	      0.17351205	     -1.03794016	      0.21083820	     -0.51897008	      0.82984999	     -4.95050103	    -33.75832497	    -38.02467417	     83.75848640	     12.80535020	     84.77252112	     82.55107276	     80.99843269	      5.81626983	     83.38237330	     49.24929959	     71.56881848	    -11.65081245	     88.56024784	     85.34499974	     88.66267884	    -13.64728237	     85.07302709	      5.67712943	      0.00082919	     -0.03081975	     -0.00481862	      0.01656592	     -0.01783128	     -0.00768381	      0.00474442	     -0.06671414	     -0.00310872	      0.00757653	     -0.18353670	     -0.00037047	     -0.00455644	      0.00129831	      0.00015988	      0.00015976	      0.00006390	      0.00031952	      0.00020449	      0.00061348	      0.00034508	      0.00002048	     -0.00002036	     -0.00002444	      0.00251914	      0.00883833	      0.00614840	     -0.00824057	      0.01989691	     -0.01887218	      0.00251914	      0.00883833	      0.00614840	      0.00055506	      0.01844520	     -0.00969227	      0.00397390	      0.00491488	      0.01603075	      0.00000000	      0.00790039	      0.00000000	     -0.00721583	     -0.03334654	     -0.00651490	      0.01463847	     -0.00047909	     -0.00384402	     -0.00089664	      0.01502943	     -0.00614840	      0.00247644	      0.02169019	     -0.01793284	     -0.00602031	      0.01302266	     -0.00550794	     -0.01255299	      0.02749702	     -0.03078470	     -0.02356887	      0.01455976	     -0.00738662	     -0.01562719	      0.03176674	     -0.03847020
